.
 
http://www.scenetime.com    -   SceneTime [ We been having it ] !!!


How come you press harder on a remote control when you know the battery is dead? so you better seed to get speed ;)

        Seed back for speed


...................................NFO:.................................................::::::::::::::Enjoy:Another:Release:From:TDP::::::::::::::

[IMG]http://lookpic.com/c1/i2/3451/rzEdfDjs.png[/IMG]

TiTLE.........: Universal.Squadrons.2011.DVDRip.AC3-TDP
RUNTiME.......: 1h 21mn
FORMAT........: XviD
RAR COUNT.....: 50x15MB
SOURCE .......: NTSC.DVDR-STOCK
GENRE.........: Thriller
AUDIO.........: English 
SUBTITLES.....: None
SAMPEL........: YES
RELEASE DATE..: 04-07-2011

IMDB : http://www.imdb.com/title/tt1535606

Plot :
After returning to civilian life as a Texas rancher, Captain Lance Deakin fends off attacks 
from former members of his unit as he struggles to uncover the truth of what he did as a 
soldier in Iraq. The military performed experiments on Lance and his men to turn them into 
super-soldiers and brainwashed them to remember their top secret missions as the hyper-
violent content of a video game called MINUTEMAN. Lance must uncover the truth in time 
to save the woman he loves.


General

Complete name                    : Universal.Squadrons.2011.DVDRip.AC3-TDP
Format                           : AVI
Format/Info                      : Audio Video Interleave
File size                        : 701 MiB
Duration                         : 1h 22mn
Overall bit rate                 : 1 187 Kbps
Writing application              : MEncoder version 4.0.0 building on 20100917


Video

Format                           : MPEG-4 Visual
Format profile                   : Simple@L1
Format settings, BVOP            : No
Format settings, QPel            : No
Format settings, GMC             : No warppoints
Format settings, Matrix          : Default (H.263)
Codec ID                         : DX50
Codec ID/Hint                    : DivX 5
Duration                         : 1h 22mn
Bit rate                         : 989 Kbps
Width                            : 720 pixels
Height                           : 404 pixels
Display aspect ratio             : 16:9
Frame rate                       : 29.970 fps
Color space                      : YUV
Chroma subsampling               : 4:2:0
Bit depth                        : 8 bits
Scan type                        : Progressive
Compression mode                 : Lossy
Bits/(Pixel*Frame)               : 0.113
Stream size                      : 584 MiB (83%)
Writing library                  : DigiArty AV Encoder Core

Audio

Format                           : AC-3
Format/Info                      : Audio Coding 3
Mode extension                   : CM (complete main)
Codec ID                         : 2000
Duration                         : 1h 22mn
Bit rate mode                    : Constant
Bit rate                         : 192 Kbps
Channel(s)                       : 2 channels
Channel positions                : Front: L R
Sampling rate                    : 48.0 KHz
Bit depth                        : 16 bits
Compression mode                 : Lossy
Stream size                      : 113 MiB (16%)
Alignment                        : Split accross interleaves
Interleave, duration             : 500 ms (14.98 video frames)
Interleave, preload duration     : 500 ms


GREETS:

IMAGiNE,FLAWL3SS,ViSiON,FUSiON,Rx,CM8,SecretMyth,BirdFlu,ELEKTRI4KA,Serenity,INK,SUBLIME
And to all the other p2p grps past and present

Looking for : SYNCERS, CAMMERS, SEED/RiPBOXES for group use
CAPPERS, SiLVER SUPPLiERS, and R1-R2-R4 PRE-RETAiL SOURCE SUPPLIERS!
Always looking for CAM+LiNE+SCR+DVDSCR+BRSCR+RUS DVD+PRERETAIL BR & DVD
If you'd like to help, feel free to contact us at thedanishpirates@gmail.com